# Blender v2.65 (sub 0) OBJ File: ''
# www.blender.org
mtllib cube.mtl
o Cube
v 1.000000 -1.000000 -1.000000
v 1.000000 -1.000000 1.000000
v -1.000000 -1.000000 1.000000
v -1.000000 -1.000000 -1.000000
v 1.000000 1.000000 -0.999999
v 0.999999 1.000000 1.000001
v -1.000000 1.000000 1.000000
v -1.000000 1.000000 -1.000000
vt 0.000000 0.334353
vt 0.332314 0.333333
vt 0.333333 0.665647
vt 0.001019 0.666667
vt -0.001019 0.002039
vt -0.002039 -0.330275
vt 0.330275 -0.331294
vt 0.331294 0.001020
vt 0.664628 0.332314
vt 0.665647 0.664628
vt 0.334353 0.997961
vt 0.002039 0.998981
vt -0.332314 0.335372
vt -0.331294 0.667686
vn 0.577349 -0.577349 -0.577349
vn 0.577349 -0.577349 0.577349
vn -0.577349 -0.577349 0.577349
vn -0.577349 -0.577349 -0.577349
vn 0.577349 0.577349 -0.577349
vn -0.577349 0.577349 -0.577349
vn -0.577349 0.577349 0.577349
vn 0.577349 0.577349 0.577349
g Cube_Cube_Material
usemtl Material
s 1
f 1/1/1 2/2/2 3/3/3
f 1/1/1 3/3/3 4/4/4
f 5/5/5 8/6/6 7/7/7
f 5/5/5 7/7/7 6/8/8
f 1/1/1 5/5/5 6/8/8
f 1/1/1 6/8/8 2/2/2
f 2/2/2 6/9/8 7/10/7
f 2/2/2 7/10/7 3/3/3
f 3/3/3 7/11/7 8/12/6
f 3/3/3 8/12/6 4/4/4
f 5/13/5 1/1/1 4/4/4
f 5/13/5 4/4/4 8/14/6
